1.9Hzlow3min_grf.mot
version=1
nRows=17
nColumns 19
inDegrees=yes
endheader
time	1_ground_force_vx	1_ground_force_vy	1_ground_force_vz	1_ground_force_px	1_ground_force_py	1_ground_force_pz	1_ground_torque_x	1_ground_torque_y	1_ground_torque_z	2_ground_force_vx	2_ground_force_vy	2_ground_force_vz	2_ground_force_px	2_ground_force_py	2_ground_force_pz	2_ground_torque_x	2_ground_torque_y	2_ground_torque_z
            0.005000	           19.679869	          634.531732	          -37.682527	           -0.270979	            0.006332	           -0.432432	            0.042635	            1.374676	           -0.081637	            7.121936	          586.291126	           21.844882	           -0.282599	            0.005430	           -0.688279	           -0.025854	           -2.128338	           -0.079301
            0.005500	           19.631607	          641.564142	          -38.110827	           -0.270982	            0.006330	           -0.431953	            0.041490	            1.355906	           -0.080545	            7.384405	          591.448492	           21.816232	           -0.282510	            0.005431	           -0.688405	           -0.027017	           -2.163887	           -0.079817
            0.006000	           19.720861	          645.532892	          -38.781892	           -0.270841	            0.006331	           -0.432138	            0.038685	            1.266287	           -0.076075	            7.185207	          594.761131	           22.203564	           -0.282700	            0.005429	           -0.688141	           -0.026802	           -2.218538	           -0.082822
            0.006500	           19.580977	          650.943256	          -39.308632	           -0.270885	            0.006330	           -0.431769	            0.038092	            1.266304	           -0.076469	            6.743099	          600.466982	           22.552609	           -0.282694	            0.005429	           -0.688268	           -0.024184	           -2.153598	           -0.080886
            0.007000	           19.991101	          655.092365	          -39.979713	           -0.270875	            0.006330	           -0.431896	            0.039745	            1.302418	           -0.079485	            6.584769	          605.437239	           22.945834	           -0.282460	            0.005431	           -0.688377	           -0.024474	           -2.250249	           -0.085284
            0.007500	           19.988882	          658.520135	          -40.607010	           -0.270842	            0.006332	           -0.432382	            0.042480	            1.399490	           -0.086298	            6.431215	          609.117324	           23.616029	           -0.282617	            0.005430	           -0.688360	           -0.023829	           -2.256872	           -0.087501
            0.008000	           19.528179	          664.110414	          -41.086329	           -0.271004	            0.006331	           -0.432136	            0.042644	            1.450217	           -0.089720	            6.037909	          614.271318	           23.869226	           -0.282474	            0.005431	           -0.688383	           -0.021639	           -2.201477	           -0.085545
            0.008500	           19.525877	          668.619643	          -41.663128	           -0.270889	            0.006330	           -0.431990	            0.042771	            1.464606	           -0.091263	            5.970600	          619.978522	           24.218112	           -0.282558	            0.005431	           -0.688690	           -0.021197	           -2.201052	           -0.085979
            0.009000	           19.340349	          672.948343	          -42.194393	           -0.270724	            0.006331	           -0.432036	            0.039437	            1.372227	           -0.086040	            5.862566	          624.027058	           24.889600	           -0.282648	            0.005431	           -0.688638	           -0.021239	           -2.260779	           -0.090172
            0.009500	           18.604786	          677.457036	          -42.677667	           -0.270782	            0.006330	           -0.431866	            0.034871	            1.269774	           -0.079992	            5.706833	          628.261132	           25.139413	           -0.282878	            0.005430	           -0.688597	           -0.020423	           -2.248370	           -0.089967
            0.010000	           18.511921	          681.423588	          -42.843858	           -0.270898	            0.006331	           -0.432059	            0.035738	            1.315518	           -0.082712	            5.175924	          632.675712	           26.047035	           -0.282844	            0.005430	           -0.688628	           -0.018916	           -2.312229	           -0.095194
            0.010500	           18.005293	          686.833881	          -43.369688	           -0.270877	            0.006329	           -0.431683	            0.035147	            1.340706	           -0.084658	            5.020253	          636.909285	           26.437632	           -0.282775	            0.005431	           -0.688736	           -0.017972	           -2.280020	           -0.094642
            0.011000	           17.406563	          690.803089	          -44.176611	           -0.270858	            0.006330	           -0.431780	            0.034489	            1.368762	           -0.087532	            4.488076	          641.691522	           27.487353	           -0.282771	            0.005431	           -0.688761	           -0.016382	           -2.342295	           -0.100334
            0.011500	           17.083990	          696.212238	          -44.427761	           -0.270849	            0.006328	           -0.431528	            0.035506	            1.446971	           -0.092336	            4.095764	          646.658758	           28.490744	           -0.282584	            0.005433	           -0.689059	           -0.014704	           -2.321494	           -0.102281
            0.012000	           16.486611	          699.638516	          -44.732583	           -0.270758	            0.006329	           -0.431571	            0.033774	            1.433267	           -0.091638	            4.273441	          649.419598	           29.063657	           -0.282806	            0.005431	           -0.688864	           -0.014880	           -2.261296	           -0.101200
            0.012500	           15.521588	          703.606989	          -45.355171	           -0.270881	            0.006329	           -0.431687	            0.029586	            1.341164	           -0.086453	            4.117187	          653.836581	           29.642623	           -0.282773	            0.005431	           -0.688895	           -0.014938	           -2.372257	           -0.107550
            0.013000	           14.786499	          707.393907	          -45.703966	           -0.270807	            0.006329	           -0.431749	            0.027679	            1.324199	           -0.085555	            3.586840	          658.067796	           30.314948	           -0.282791	            0.005432	           -0.688938	           -0.012706	           -2.331109	           -0.107386
